<?xml version="1.0" encoding="UTF-8"?>
<svg xmlns="http://www.w3.org/2000/svg" xmlns:xlink="http://www.w3.org/1999/xlink" width="164px" height="29px" viewBox="0 0 164 29" version="1.1">
  <title>F8259219-2FA3-4A87-A57B-DE4992B77D9F</title>
  <g id="r4" stroke="none" stroke-width="1" fill="none" fill-rule="evenodd">
    <g id="Geek-Support_LP-M_MENU_r4" transform="translate(-29.000000, -68.000000)" fill="#FFFFFF">
      <g id="GS-LOGO-W" transform="translate(29.000000, 68.000000)">
        <g id="GS">
          <g id="G" opacity="0.7">
            <polygon id="Fill-4" points="25.7901213 13.7889824 11.2742557 13.7889824 20.2300891 28.9997295 25.3578195 28.9997295 24.3304223 27.3937871 18.868393 18.1162103 25.7901213 18.1162103"></polygon>
            <path d="M4.35568526,14.5 C4.35568526,8.89083075 8.94929982,4.32722796 14.5953568,4.32722796 L25.7900124,4.32722796 L25.7900124,0 L14.5953568,0 C6.5471394,0 0,6.50490544 0,14.5 C0,22.4950946 6.5471394,29 14.5953568,29 L14.5953568,24.672772 C8.94929982,24.672772 4.35568526,20.1091692 4.35568526,14.5" id="Fill-1"></path>
          </g>
          <g id="S" transform="translate(25.971590, 0.000054)">
            <path d="M9.24499641,28.9997295 L0.239617135,28.9997295 L0.239617135,24.6725016 L9.24499641,24.6725016 C12.2378966,24.6725016 14.6727247,22.2535812 14.6727247,19.2807755 L19.02841,19.2807755 C19.02841,24.6395065 14.6395126,28.9997295 9.24499641,28.9997295" id="Fill-9"></path>
            <polygon id="Fill-11" points="11.7738528 14.0464524 9.4381166 9.71922446 4.38116602 9.71922446 9.69510203 19.2807755 14.6758281 19.2807755"></polygon>
            <path d="M4.35568526,9.71949491 L0,9.71949491 C0,4.36022308 4.38889736,0 9.78286909,0 L18.7882484,0 L18.7882484,4.32722796 L9.78286909,4.32722796 C6.79051332,4.32722796 4.35568526,6.74614839 4.35568526,9.71949491" id="Fill-6"></path>
          </g>
        </g>
        <g id="GeekSupport" transform="translate(53.000000, 7.500000)">
          <path d="M5.98128507,2.23612557 C4.51036753,2.23612557 3.57716881,2.42407862 3.1816889,2.79998472 C2.78620898,3.17646385 2.58874793,4.05949936 2.58874793,5.44909127 L2.57870753,6.82951474 L2.59878832,8.59214761 C2.59878832,9.95538025 2.79457598,10.822944 3.18670909,11.195985 C3.57884221,11.5684529 4.48749775,11.7546869 5.91267572,11.7546869 C7.29824992,11.7546869 8.17901548,11.5971043 8.55497241,11.2813661 C8.93092933,10.9656279 9.1189078,10.220692 9.1189078,9.04541244 L9.12894819,8.48098026 L5.76541663,8.48098026 L5.76541663,6.55732664 L11.6585694,6.55732664 L11.6976153,9.28723008 C11.6976153,11.2744898 11.3333722,12.5557795 10.6043281,13.1299531 C9.87528405,13.7041268 8.24929823,13.9912136 5.72637065,13.9912136 C3.41261793,13.9912136 1.87922684,13.6084311 1.12787078,12.8428663 C0.375956928,12.0773014 0,10.5158012 0,8.15893875 C0,5.1505439 0.150605891,3.25038441 0.451259873,2.45788725 C0.823870004,1.49061667 1.38947879,0.839084302 2.14752845,0.503863161 C2.9055781,0.168068993 4.19353736,0.000171908278 6.01084845,0.000171908278 L10.5173114,0.000171908278 L10.5173114,2.2366986 L5.98128507,2.23612557 Z" id="Fill-13" opacity="0.7"></path>
          <path d="M19.3063365,8.0582005 L19.2962961,7.67541807 C19.2962961,6.90985321 19.1674444,6.41303829 18.9091832,6.18440028 C18.650922,5.9563353 18.0903334,5.84230281 17.2274174,5.84230281 C16.390718,5.84230281 15.8468634,5.97982943 15.5952958,6.2554557 C15.3437282,6.53050894 15.2176655,7.13161489 15.2176655,8.0582005 L19.3063365,8.0582005 Z M19.2868135,10.7881039 L21.5419973,10.7881039 L21.5419973,11.1605719 C21.5419973,13.0406754 20.1692525,13.9810137 17.4237629,13.9810137 C15.5607122,13.9810137 14.3419201,13.655534 13.7662709,13.0040016 C13.1911795,12.3524693 12.9033549,10.9726188 12.9033549,8.8638773 C12.9033549,6.9906501 13.2045667,5.73113545 13.8058747,5.08647941 C14.4071826,4.44182337 15.5802352,4.11978187 17.3255901,4.11978187 C18.9989889,4.11978187 20.1201661,4.43380099 20.6891217,5.06183923 C21.2575195,5.68930444 21.5419973,6.92360587 21.5419973,8.76302444 L21.5419973,9.4684214 L15.1981425,9.4684214 C15.1847553,9.68330675 15.1786195,9.82427154 15.1786195,9.89131577 C15.1786195,10.8385304 15.3203006,11.4694338 15.6047784,11.785172 C15.8892562,12.1009102 16.4565384,12.2584927 17.3060672,12.2584927 C18.1299372,12.2584927 18.6659826,12.1662353 18.9142034,11.9817204 C19.1624242,11.7966325 19.2868135,11.3989514 19.2868135,10.7881039 L19.2868135,10.7881039 Z" id="Fill-15" opacity="0.7"></path>
          <path d="M29.3336767,8.0582005 L29.3236363,7.67541807 C29.3236363,6.90985321 29.1947846,6.41303829 28.9365234,6.18440028 C28.6782622,5.9563353 28.1176736,5.84230281 27.2547576,5.84230281 C26.4180582,5.84230281 25.8742036,5.97982943 25.622636,6.2554557 C25.3710684,6.53050894 25.2450057,7.13161489 25.2450057,8.0582005 L29.3336767,8.0582005 Z M29.3141537,10.7881039 L31.5693375,10.7881039 L31.5693375,11.1605719 C31.5693375,13.0406754 30.1965927,13.9810137 27.4511031,13.9810137 C25.5880524,13.9810137 24.3692603,13.655534 23.7936111,13.0040016 C23.2185198,12.3524693 22.9306952,10.9726188 22.9306952,8.8638773 C22.9306952,6.9906501 23.2319069,5.73113545 23.8332149,5.08647941 C24.4345229,4.44182337 25.6075754,4.11978187 27.3529304,4.11978187 C29.0263291,4.11978187 30.1475063,4.43380099 30.7164619,5.06183923 C31.2848597,5.68930444 31.5693375,6.92360587 31.5693375,8.76302444 L31.5693375,9.4684214 L25.2254827,9.4684214 C25.2120955,9.68330675 25.2059597,9.82427154 25.2059597,9.89131577 C25.2059597,10.8385304 25.3476408,11.4694338 25.6321186,11.785172 C25.9165964,12.1009102 26.4838786,12.2584927 27.3334074,12.2584927 C28.1572774,12.2584927 28.6933228,12.1662353 28.9415436,11.9817204 C29.1897644,11.7966325 29.3141537,11.3989514 29.3141537,10.7881039 L29.3141537,10.7881039 Z" id="Fill-17" opacity="0.7"></path>
          <polygon id="Fill-19" opacity="0.7" points="35.4684125 0.120851519 35.4684125 7.98794732 36.0468506 7.98794732 38.5764718 4.24034687 41.1847427 4.24034687 37.9199417 8.77356815 41.8513132 13.8700755 39.0667777 13.8700755 36.0172873 9.59930091 35.4684125 9.59930091 35.4684125 13.8700755 33.2232691 13.8700755 33.2232691 0.120851519"></polygon>
          <path d="M42.6766335,13.9910417 L42.6766335,11.9247042 L47.9322213,11.8960528 C49.0695747,11.8960528 49.795272,11.7717058 50.1087553,11.5230118 C50.4227965,11.2748909 50.5795382,10.7007172 50.5795382,9.80106392 C50.5795382,9.13577889 50.4601691,8.69454764 50.2219887,8.47622413 C49.9832504,8.25790062 49.4684014,8.12553124 48.6774416,8.07854298 L47.2751334,7.98743159 C45.1577261,7.86021947 43.8045043,7.5576609 43.2160257,7.08090195 C42.6275472,6.60414299 42.3335868,5.58014268 42.3335868,4.00890103 C42.3335868,2.40385075 42.6883473,1.33458126 43.3973106,0.800519545 C44.1068317,0.267030858 45.5236427,0 47.6477435,0 L51.7291632,0 L51.7291632,2.15171861 L47.824566,2.09498887 C46.6219501,2.09498887 45.8354526,2.20902136 45.4661893,2.43765937 C45.096926,2.66572435 44.9122943,3.14592148 44.9122943,3.87825074 C44.9122943,4.74409543 45.0629002,5.26497751 45.3635542,5.4391779 C45.6642082,5.61395131 46.6576492,5.74803977 48.3438774,5.84201629 C50.338011,5.95662181 51.6270858,6.24829286 52.2122176,6.71874851 C52.7973494,7.18863113 53.0896364,8.16564318 53.0896364,9.64978464 C53.0896364,11.4760236 52.7465896,12.6564604 52.0604961,13.1905221 C51.3738448,13.7240108 49.8605345,13.9910417 47.5205652,13.9910417 L42.6766335,13.9910417 Z" id="Fill-21"></path>
          <path d="M62.7951262,4.24063339 L62.7951262,13.8703621 L60.5499829,13.8703621 L60.6771612,12.2183235 L60.6381152,12.208009 C60.2002425,13.3901649 59.1934142,13.9809564 57.6181882,13.9809564 C55.4935295,13.9809564 54.4314791,12.8899118 54.4314791,10.7072498 L54.4314791,4.24063339 L56.6766225,4.24063339 L56.6766225,10.1531321 C56.6766225,10.9725615 56.7876246,11.5112075 57.0101866,11.7702159 C57.2321909,12.0286514 57.6934911,12.1575826 58.392414,12.1575826 C59.8309792,12.1575826 60.5499829,11.2716819 60.5499829,9.49873456 L60.5499829,4.24063339 L62.7951262,4.24063339 Z" id="Fill-23"></path>
          <path d="M69.164584,5.94292645 C68.3083617,5.94292645 67.7494465,6.141194 67.4878385,6.53715606 C67.2262305,6.93369116 67.0957053,7.77260355 67.0957053,9.05561233 C67.0957053,10.3042394 67.2362708,11.1339834 67.5174018,11.5431251 C67.7985328,11.9528398 68.3702774,12.1579837 69.2331934,12.1579837 C70.1089388,12.1579837 70.6778944,11.9631543 70.9395024,11.5734956 C71.2005526,11.1838368 71.3316355,10.3477895 71.3316355,9.0653538 C71.3316355,7.74910942 71.1988792,6.89988253 70.9344822,6.5171001 C70.6695274,6.13431767 70.0799332,5.94292645 69.164584,5.94292645 L69.164584,5.94292645 Z M64.7423488,4.24046148 L67.027096,4.24046148 L66.9389637,5.67073835 L66.98805,5.68105284 C67.5302312,4.64043474 68.5404063,4.11955266 70.0174596,4.11955266 C71.3840686,4.11955266 72.3234032,4.4673804 72.8365788,5.16246287 C73.3497544,5.85754534 73.6063422,7.12508237 73.6063422,8.96450094 C73.6063422,10.8852894 73.3514278,12.2015338 72.841599,12.9132341 C72.3317702,13.6249343 71.3868576,13.9807845 70.007977,13.9807845 C68.5370595,13.9807845 67.5759708,13.4770932 67.1252687,12.4702837 L67.085665,12.4702837 L67.085665,18 L64.7423488,18 L64.7423488,4.24046148 Z" id="Fill-25"></path>
          <path d="M79.6805567,5.94292645 C78.8243343,5.94292645 78.2654191,6.141194 78.0038111,6.53715606 C77.7422031,6.93369116 77.611678,7.77260355 77.611678,9.05561233 C77.611678,10.3042394 77.7522435,11.1339834 78.0333745,11.5431251 C78.3145055,11.9528398 78.8862501,12.1579837 79.7491661,12.1579837 C80.6249114,12.1579837 81.193867,11.9631543 81.455475,11.5734956 C81.7165252,11.1838368 81.8476081,10.3477895 81.8476081,9.0653538 C81.8476081,7.74910942 81.7148518,6.89988253 81.4504548,6.5171001 C81.1855,6.13431767 80.5959059,5.94292645 79.6805567,5.94292645 L79.6805567,5.94292645 Z M75.2583215,4.24046148 L77.5430687,4.24046148 L77.4549363,5.67073835 L77.5040227,5.68105284 C78.0462039,4.64043474 79.056379,4.11955266 80.5334323,4.11955266 C81.9000413,4.11955266 82.8393758,4.4673804 83.3525515,5.16246287 C83.8657271,5.85754534 84.1223149,7.12508237 84.1223149,8.96450094 C84.1223149,10.8852894 83.8674005,12.2015338 83.3575717,12.9132341 C82.8477428,13.6249343 81.9028303,13.9807845 80.5239497,13.9807845 C79.0530322,13.9807845 78.0919435,13.4770932 77.6412414,12.4702837 L77.6016376,12.4702837 L77.6016376,18 L75.2583215,18 L75.2583215,4.24046148 Z" id="Fill-27"></path>
          <path d="M89.9486432,5.95301174 C89.0137711,5.95301174 88.4191567,6.12606607 88.1642423,6.47160171 C87.9093279,6.81771037 87.7815918,7.62510625 87.7815918,8.89436236 C87.7815918,10.3446952 87.9026343,11.2512248 88.1447193,11.6139513 C88.3862466,11.9766778 88.9909013,12.1577545 89.9586836,12.1577545 C90.892998,12.1577545 91.4831499,11.9663633 91.728024,11.5835808 C91.9734558,11.2007984 92.0961717,10.2810891 92.0961717,8.82387997 C92.0961717,7.59473579 91.9684356,6.80911496 91.7135212,6.46644446 C91.4586067,6.12434699 90.8701282,5.95301174 89.9486432,5.95301174 M89.9681662,4.12963794 C91.7787837,4.12963794 92.9652235,4.42703926 93.5274854,5.02126887 C94.0897474,5.61549849 94.3708784,6.86985588 94.3708784,8.78319501 C94.3708784,10.9188688 94.096441,12.3187752 93.5470084,12.9840603 C92.9981336,13.6487723 91.8412573,13.9811283 90.0763793,13.9811283 C88.1608955,13.9811283 86.9203492,13.6722664 86.3552982,13.0545427 C85.7896895,12.4362459 85.5068851,11.0764514 85.5068851,8.97458623 C85.5068851,6.95351791 85.7846693,5.6407117 86.3402377,5.03616759 C86.8958061,4.43219651 88.1051156,4.12963794 89.9681662,4.12963794" id="Fill-29"></path>
          <path d="M99.963433,5.9127279 C98.8522962,5.9127279 98.2967278,6.67485459 98.2967278,8.19910799 L98.2967278,13.8703621 L96.0510266,13.8703621 L96.0510266,4.24063339 L98.2967278,4.24063339 L98.1595091,5.59068639 L98.2085954,5.60042786 C98.7440831,4.59304536 99.587476,4.0893541 100.738217,4.0893541 L102.832754,4.0893541 L102.832754,5.95283983 L99.963433,5.9127279 Z" id="Fill-31"></path>
          <path d="M108.146855,13.9910417 C106.146586,13.9910417 105.146451,13.0478383 105.146451,11.1608584 L105.146451,5.99329558 L103.930448,5.99329558 L103.930448,4.24040418 L105.146451,4.24040418 L105.146451,2.0852474 L107.391594,2.0852474 L107.391594,4.24040418 L111,4.24040418 L111,5.99329558 L107.391594,5.99329558 L107.391594,10.8279294 C107.391594,11.7212794 107.721812,12.1676679 108.382246,12.1676679 L109.805751,12.1676679 L109.805751,13.9910417 L108.146855,13.9910417 Z" id="Fill-33"></path>
        </g>
      </g>
    </g>
  </g>
</svg>
