<?xml version="1.0" encoding="UTF-8"?>
<svg xmlns="http://www.w3.org/2000/svg" xmlns:xlink="http://www.w3.org/1999/xlink" width="111px" height="110px" viewBox="0 0 111 110" version="1.1">
  <title>D0BD4818-FD63-418C-9F2D-00D8CBCBC87A</title>
  <defs>
    <linearGradient x1="0%" y1="50%" x2="100%" y2="50%" id="linearGradient-1">
      <stop stop-color="#06475C" offset="0%"></stop>
      <stop stop-color="#185D6B" offset="15%"></stop>
      <stop stop-color="#17A7A7" offset="73.5159494%"></stop>
      <stop stop-color="#70CAB5" offset="100%"></stop>
    </linearGradient>
    <linearGradient x1="9.43164935e-16%" y1="50%" x2="100%" y2="50%" id="linearGradient-2">
      <stop stop-color="#328B91" offset="0%"></stop>
      <stop stop-color="#50A5A0" offset="17%"></stop>
      <stop stop-color="#70C0B0" offset="40%"></stop>
      <stop stop-color="#87D4BB" offset="62%"></stop>
      <stop stop-color="#94E0C2" offset="82%"></stop>
      <stop stop-color="#99E4C4" offset="100%"></stop>
    </linearGradient>
    <linearGradient x1="14.6429806%" y1="14.6436398%" x2="85.3536587%" y2="85.3543179%" id="linearGradient-3">
      <stop stop-color="#06475C" offset="0%"></stop>
      <stop stop-color="#185D6B" offset="15%"></stop>
      <stop stop-color="#17A7A7" offset="73%"></stop>
      <stop stop-color="#70CAB5" offset="100%"></stop>
    </linearGradient>
    <linearGradient x1="0%" y1="50%" x2="100%" y2="50%" id="linearGradient-4">
      <stop stop-color="#7ED4BB" offset="0%"></stop>
      <stop stop-color="#A2E9C8" offset="42%"></stop>
      <stop stop-color="#BAF7D0" offset="78%"></stop>
      <stop stop-color="#C3FCD3" offset="100%"></stop>
    </linearGradient>
    <linearGradient x1="4.58646168e-06%" y1="49.9901012%" x2="100.026948%" y2="49.9901012%" id="linearGradient-5">
      <stop stop-color="#B3F3CD" offset="0%"></stop>
      <stop stop-color="#C4F1D4" offset="47%"></stop>
      <stop stop-color="#DCEFDF" offset="100%"></stop>
    </linearGradient>
  </defs>
  <g id="Page-1" stroke="none" stroke-width="1" fill="none" fill-rule="evenodd">
    <g id="Geek-Support_LP-1_1" transform="translate(-665.000000, -3515.000000)" fill-rule="nonzero">
      <g id="HOW-WE-KEEP-PRICES-LOW" transform="translate(105.000000, 3370.000000)">
        <g id="CUTTING-EDGE-TECH" transform="translate(430.000000, 145.000000)">
          <g id="ICON-BULLSEYE" transform="translate(130.000000, 0.000000)">
            <ellipse id="Oval" fill="url(#linearGradient-1)" cx="54.1009339" cy="55.9636803" rx="54.1009339" ry="54.0363197"></ellipse>
            <ellipse id="Oval" fill="url(#linearGradient-2)" cx="54.1009339" cy="55.9636803" rx="47.0032747" ry="46.9471374"></ellipse>
            <path d="M48.3659055,9.37050342 C22.6031995,12.5362072 4.28504952,35.9599223 7.45453869,61.6918592 C10.6240279,87.4237961 34.0732563,105.717576 59.8359624,102.554364 C85.5986684,99.3911534 103.916818,75.9649456 100.747329,50.2330087 C97.57784,24.5010718 74.1211245,6.20729234 48.3659055,9.37050342 Z M59.0972468,96.5395273 C36.6623401,99.2931812 16.2400952,83.3606526 13.4821597,60.9526619 C10.7242243,38.5446712 26.6749041,18.146115 49.1095677,15.3904857 C71.5442313,12.6348565 91.9678823,28.5655869 94.7277954,50.9733347 C96.0533083,61.7351796 93.043916,72.5821431 86.3617565,81.1276351 C79.679597,89.673127 69.8721354,95.2170206 59.0972468,96.5395273 Z" id="Shape" fill="#FFFFFF"></path>
            <circle id="Oval" fill="url(#linearGradient-3)" transform="translate(54.100294, 55.962239) rotate(-45.000000) translate(-54.100294, -55.962239) " cx="54.100294" cy="55.9622394" r="31.3168098"></circle>
            <ellipse id="Oval" fill="url(#linearGradient-4)" cx="54.1009339" cy="55.9636803" rx="15.6677582" ry="15.6490458"></ellipse>
            <ellipse id="Oval" fill="#FFFFFF" cx="54.1009339" cy="55.9636803" rx="5.72255012" ry="5.71571552"></ellipse>
            <path d="M54.1009339,57.8980084 C53.3144959,57.896177 52.6070407,57.4201068 52.3099718,56.692802 C52.0129029,55.9654972 52.1850572,55.1310066 52.7457901,54.5802428 L92.0474558,16.1929689 C92.8124208,15.4454375 94.039266,15.4588297 94.7876913,16.2228811 C95.5361165,16.9869325 95.5227084,18.2123125 94.7577434,18.9598439 L55.4560777,57.3471178 C55.0944568,57.7015754 54.6075979,57.8994895 54.1009339,57.8980084 L54.1009339,57.8980084 Z" id="Path" fill="#C86DD7"></path>
            <polygon id="Path" fill="#FFFFFF" points="77.7348413 33.2254522 77.7348413 17.5764064 93.4025996 1.92736057 93.4025996 17.5764064 109.070358 17.5764064 93.4025996 33.2254522"></polygon>
            <path d="M93.4025996,35.1597736 L77.7348413,35.1597736 C77.2210113,35.1604346 76.7280356,34.9568536 76.3647026,34.5939545 C76.0013696,34.2310555 75.7975451,33.7386686 75.798207,33.2254522 L75.798207,17.5764064 C75.7976649,17.0627258 76.0025003,16.5700929 76.3672192,16.207925 L92.0324818,0.558879179 C92.587706,0.011143754 93.4175655,-0.150786003 94.1383584,0.147961307 C94.8591513,0.446708616 95.3304108,1.14791367 95.334241,1.92736057 L95.334241,15.6371012 L109.060375,15.6371012 C109.842569,15.636923 110.548284,16.1061484 110.849941,16.8269722 C111.151598,17.547796 110.990125,18.3790636 110.440476,18.934917 L94.7727173,34.5839629 C94.4113535,34.9509916 93.9179773,35.1583391 93.4025996,35.1597736 L93.4025996,35.1597736 Z M79.6764654,31.2886397 L92.6039881,31.2886397 L104.39349,19.5107262 L93.4125822,19.5107262 C92.8987522,19.5113888 92.4057765,19.3078078 92.0424435,18.9449087 C91.6791105,18.5820096 91.475286,18.0896227 91.4759495,17.5764064 L91.4759495,6.60861384 L79.6739697,18.3765567 L79.6764654,31.2886397 Z" id="Shape" fill="#EF662D"></path>
            <path d="M101.236479,27.3352507 L85.5687204,27.3352507 C85.0548904,27.3359117 84.5619147,27.1323307 84.1985817,26.7694316 C83.8352487,26.4065326 83.6314243,25.9141456 83.6320877,25.4009293 L83.6320877,9.75188347 C83.6066429,9.04380613 83.9703349,8.37836307 84.5803909,8.01678385 C85.1904469,7.65520463 85.9494897,7.65520463 86.5595457,8.01678385 C87.1696017,8.37836307 87.5332936,9.04380613 87.5078489,9.75188347 L87.5078489,23.4616242 L101.233983,23.4616242 C101.942907,23.4362098 102.609146,23.7994673 102.971157,24.4087947 C103.333169,25.0181222 103.333169,25.7762584 102.971157,26.3855858 C102.609146,26.9949132 101.942907,27.3581708 101.233983,27.3327564 L101.236479,27.3352507 Z" id="Path" fill="#C86DD7"></path>
            <path d="M93.4025996,35.1597736 L77.7348413,35.1597736 C77.2210113,35.1604346 76.7280356,34.9568536 76.3647026,34.5939545 C76.0013696,34.2310555 75.7975451,33.7386686 75.798207,33.2254522 L75.798207,17.5764064 C75.7976649,17.0627258 76.0025003,16.5700929 76.3672192,16.207925 L92.0324818,0.558879179 C92.587706,0.011143754 93.4175655,-0.150786003 94.1383584,0.147961307 C94.8591513,0.446708616 95.3304108,1.14791367 95.334241,1.92736057 L95.334241,15.6371012 L109.060375,15.6371012 C109.842569,15.636923 110.548284,16.1061484 110.849941,16.8269722 C111.151598,17.547796 110.990125,18.3790636 110.440476,18.934917 L94.7727173,34.5839629 C94.4113535,34.9509916 93.9179773,35.1583391 93.4025996,35.1597736 L93.4025996,35.1597736 Z M79.6764654,31.2886397 L92.6039881,31.2886397 L104.39349,19.5107262 L93.4125822,19.5107262 C92.8987522,19.5113888 92.4057765,19.3078078 92.0424435,18.9449087 C91.6791105,18.5820096 91.475286,18.0896227 91.4759495,17.5764064 L91.4759495,6.60861384 L79.6739697,18.3765567 L79.6764654,31.2886397 Z" id="Shape" fill="url(#linearGradient-5)"></path>
          </g>
        </g>
      </g>
    </g>
  </g>
</svg>
