<?xml version="1.0" encoding="UTF-8"?>
<svg xmlns="http://www.w3.org/2000/svg" xmlns:xlink="http://www.w3.org/1999/xlink" width="65px" height="125px" viewBox="0 0 65 125" version="1.1">
  <title>4B1854FE-38E4-45BA-A22A-24A1C461090A</title>
  <defs>
    <linearGradient x1="0%" y1="50%" x2="100%" y2="50%" id="linearGradient-1">
      <stop stop-color="#06475C" offset="0%"></stop>
      <stop stop-color="#185D6B" offset="15%"></stop>
      <stop stop-color="#17A7A7" offset="74.1581417%"></stop>
      <stop stop-color="#70CAB5" offset="100%"></stop>
    </linearGradient>
    <linearGradient x1="0%" y1="50%" x2="91.8924979%" y2="50%" id="linearGradient-2">
      <stop stop-color="#06475C" offset="0%"></stop>
      <stop stop-color="#185D6B" offset="0%"></stop>
      <stop stop-color="#17A7A7" offset="0%"></stop>
      <stop stop-color="#70CAB5" offset="100%"></stop>
    </linearGradient>
  </defs>
  <g id="r4" stroke="none" stroke-width="1" fill="none" fill-rule="evenodd">
    <g id="Geek-Support_LP_r4" transform="translate(-687.000000, -1528.000000)">
      <g id="BENEFITS" transform="translate(89.000000, 1100.000000)">
        <g id="FLAT-PRICING" transform="translate(431.000000, 428.000033)">
          <g id="ICON-PRICING" transform="translate(167.000007, 0.000000)">
            <path d="M48.4183402,24.6842264 C46.9534465,29.2502507 43.5954561,32.9704665 39.2814113,34.9024236 C39.624389,35.740316 39.8172388,36.6559397 39.8288207,37.6141121 C44.7635905,35.5813353 48.6882206,31.5622884 50.6120204,26.5502164 L48.4183402,24.6842264 Z" id="Fill-1" fill="#F8B500"></path>
            <path d="M5.47060083,58.8544699 L5.48600696,46.382396 C5.48600696,43.639593 6.98957988,41.0055258 9.68051757,39.038826 L19.8815621,30.3917458 L22.0135085,28.5839168 L26.9713329,24.3826907 C27.8466416,23.7424797 28.9953271,23.3895556 30.1904496,23.3895556 L45.750315,23.4050579 C46.2107507,23.4050579 46.6636473,23.459151 47.0972043,23.5610702 L43.5492049,20.5450533 C42.6778297,19.9009943 41.5289256,19.5441122 40.3336939,19.5441122 L24.7739377,19.5286099 C23.578706,19.5286099 22.4300204,19.881534 21.5547118,20.521745 L16.5968874,24.7229711 L14.464941,26.5308 L4.26389643,35.1778803 C1.57295874,37.1445801 0.0694950875,39.7786473 0.0694950875,42.5213404 L0.0539796923,54.9935242 L0,119.964543 C-0.00338356458,122.362118 2.38434835,124.366309 5.56325615,124.844131 C5.46721367,124.515175 5.41596916,124.174674 5.41662474,123.825598 L5.47060083,58.8544699 Z" id="Fill-3" fill="url(#linearGradient-1)"></path>
            <path d="M60.8207352,35.2321163 L55.8004122,30.9626142 L53.6335016,29.1198227 L50.611933,26.5501834 C50.5946694,26.595151 50.5751112,26.6389092 50.5575198,26.6836569 L55.2898246,30.7080911 C57.9731139,32.6828169 59.4728626,35.3168841 59.4691476,38.0594672 L59.4574565,50.5315411 L59.4035896,115.50256 C59.3996561,118.253169 56.2576793,120.479779 52.3829826,120.476041 L5.41941095,120.433052 L5.41656578,123.825521 C5.41656578,124.174597 5.4672683,124.515098 5.56320152,124.844164 C6.03117643,124.914419 6.51554085,124.952899 7.01268907,124.953339 L57.9138932,124.999961 C61.7884807,125.003804 64.9305667,122.777084 64.9345002,120.026585 L64.9882578,55.0555663 L64.9999563,42.5833824 C65.0037732,39.8407993 63.5040245,37.2067322 60.8207352,35.2321163" id="Fill-5" fill="url(#linearGradient-2)"></path>
            <path d="M48.3699474,24.8231531 C48.3853536,24.7764264 48.4032728,24.731129 48.4183511,24.6841824 L47.097248,23.5610922 C47.0102744,23.5406423 46.9194765,23.5309672 46.8310825,23.5144754 L48.1026893,24.5958964 L48.3699474,24.8231531 Z" id="Fill-7" fill="#F8B500"></path>
            <path d="M55.2898683,30.7080801 L50.5575635,26.6836459 C49.02886,30.579884 46.2862408,33.8628478 42.8029253,36.0676889 C41.8615123,36.6637018 40.8692919,37.1855017 39.8288863,37.6140681 L39.8288863,37.7071917 C39.8249528,41.7765935 36.5401688,45.0779182 32.4921803,45.0739601 C32.131502,45.0736303 31.7798926,45.0383379 31.4333093,44.9872134 C28.8145946,44.6016355 26.6479025,42.8232719 25.6964372,40.423278 C25.3614358,39.5782392 25.1739399,38.657778 25.174814,37.6915795 C25.174814,37.6683811 25.174814,37.6450727 25.1788568,37.6217643 C25.1865052,36.6752461 25.3715973,35.7752346 25.7070358,34.9450384 C26.7864484,32.2333499 29.4273435,30.3208531 32.5075865,30.3248111 C34.145007,30.3269001 35.6529504,30.8717885 36.870909,31.7863127 C37.7447972,32.4425756 38.4700873,33.2878343 38.9817675,34.265577 C39.0901568,34.4729337 39.1925365,34.6839185 39.2814769,34.9023797 C39.5534334,34.7806703 39.8216749,34.6514847 40.0859829,34.5155924 C43.9684374,32.5197572 46.9765666,29.0381224 48.3698928,24.8231531 L48.1026347,24.5958964 L46.8310278,23.5144754 C46.4786535,23.4485083 46.118303,23.4050799 45.7503041,23.4050799 L44.4886402,23.4038705 L41.4500265,23.400792 L30.1904387,23.3895776 C28.9953162,23.3895776 27.8466306,23.7425017 26.971322,24.3827127 L24.9609857,26.0860937 L22.0134976,28.5839388 L20.3732363,29.9747456 L19.8815512,30.3917677 L9.68050665,39.038848 C6.98956895,41.0055478 5.48599604,43.639615 5.48599604,46.3823081 L5.47058991,58.8544919 L5.41945466,120.433041 L52.3830263,120.476034 C56.2576138,120.479768 59.3996998,118.253158 59.4036333,115.502549 L59.4573909,50.5315301 L59.4690894,38.0594562 C59.4729063,35.3168731 57.9731576,32.6828059 55.2898683,30.7080801" id="Fill-9" fill="#17A7A7"></path>
            <polygon id="Fill-11" fill="#B3F3CD" points="55.0884523 59.512503 55.0884523 55.2519064 9.91264755 55.2519064 9.91264755 114.103705 14.1468208 114.103705 14.1468208 59.512503"></polygon>
            <polygon id="Fill-13" fill="#FFFFFF" points="14.1468645 114.103738 55.088496 114.103738 55.088496 59.512536 14.1468645 59.512536"></polygon>
            <path d="M51.818754,19.528577 C51.818754,22.0036634 51.3599572,24.370014 50.5195035,26.5502274 C48.595813,31.5622994 44.6710736,35.5813463 39.7364131,37.6141231 C37.4732414,38.5450292 34.9982081,39.061002 32.4073556,39.061002 C29.874522,39.061002 27.4109613,38.5799917 25.0862743,37.6217093 C25.094032,36.6751911 25.2791241,35.7752896 25.6145626,34.9450934 C25.7109329,34.9605956 25.8073032,34.9916002 25.89974,35.0304108 C27.9623041,35.9071139 30.1482267,36.3532715 32.4073556,36.3532715 C34.8208737,36.3532715 37.1146391,35.8372987 39.1890037,34.9024346 C43.5029392,32.9704775 46.8609296,29.2501517 48.3258233,24.6842374 C48.8463539,23.0588075 49.1278163,21.3284899 49.1278163,19.528577 C49.1278163,10.2531598 41.6254671,2.70773047 32.4073556,2.70773047 C23.1895719,2.70773047 15.6909377,10.2531598 15.6909377,19.528577 C15.6909377,21.3052914 15.9646424,23.0510014 16.5044033,24.7229381 L14.3724569,26.5307671 C14.2684382,26.410487 14.187474,26.2708566 14.1296737,26.1157239 C13.3778327,24.0053257 13,21.7902597 13,19.528577 C13,8.75955424 21.7052293,0 32.4073556,0 C43.1097004,0 51.818754,8.75955424 51.818754,19.528577" id="Fill-18" fill="#C86DD7"></path>
            <g id="$" transform="translate(22.560000, 64.900000)" fill="#C86DD7" fill-rule="nonzero">
              <path d="M0,32.76 L0,29.25 L13.05,29.25 C13.95,29.25 14.4,28.8 14.4,27.9 L14.4,25.29 C14.4,24.42 14.025,23.925 13.275,23.805 L5.4,22.23 C1.8,21.54 0,19.125 0,14.985 L0,13.32 C0,8.04 2.355,5.4 7.065,5.4 L7.74,5.4 L7.74,0 L13.14,0 L13.14,5.4 L16.965,5.4 L19.98,7.74 L19.98,11.25 L7.83,11.25 C6.93,11.25 6.48,11.7 6.48,12.6 L6.48,15.03 C6.48,15.87 6.855,16.365 7.605,16.515 L15.48,18.09 C19.08,18.84 20.88,21.255 20.88,25.335 L20.88,27.18 C20.88,32.46 18.525,35.1 13.815,35.1 L13.14,35.1 L13.14,40.5 L7.74,40.5 L7.74,35.1 L3.015,35.1 L0,32.76 Z" id="Path"></path>
            </g>
          </g>
        </g>
      </g>
    </g>
  </g>
</svg>
