<?xml version="1.0" encoding="UTF-8"?>
<svg xmlns="http://www.w3.org/2000/svg" xmlns:xlink="http://www.w3.org/1999/xlink" width="118px" height="131px" viewBox="0 0 118 131" version="1.1">
  <title>0BF3DF44-DD76-465A-BB85-D43B2B965B1E</title>
  <defs>
    <linearGradient x1="0%" y1="50%" x2="100%" y2="50%" id="linearGradient-1">
      <stop stop-color="#06475C" offset="0%"></stop>
      <stop stop-color="#185D6B" offset="15%"></stop>
      <stop stop-color="#17A7A7" offset="74.1581417%"></stop>
      <stop stop-color="#70CAB5" offset="100%"></stop>
    </linearGradient>
    <linearGradient x1="0.00683854202%" y1="50.0012062%" x2="100%" y2="50.0012062%" id="linearGradient-2">
      <stop stop-color="#7ED4BB" offset="0%"></stop>
      <stop stop-color="#A2E9C8" offset="42%"></stop>
      <stop stop-color="#BAF7D0" offset="78%"></stop>
      <stop stop-color="#C3FCD3" offset="100%"></stop>
    </linearGradient>
    <path d="M0,9.29826369 C0,14.4337971 4.1362991,18.5976113 9.23856027,18.5976113 L9.23856027,18.5976113 C14.3408214,18.5976113 18.477659,14.4337971 18.477659,9.29826369 L18.477659,9.29826369 C18.477659,4.16273028 14.3408214,0 9.23856027,0 L9.23856027,0 C4.1362991,0 0,4.16273028 0,9.29826369" id="path-3"></path>
    <path d="M0,9.29826369 C0,14.4337971 4.1362991,18.5976113 9.23856027,18.5976113 L9.23856027,18.5976113 C14.3408214,18.5976113 18.477659,14.4337971 18.477659,9.29826369 L18.477659,9.29826369 C18.477659,4.16273028 14.3408214,0 9.23856027,0 L9.23856027,0 C4.1362991,0 0,4.16273028 0,9.29826369" id="path-5"></path>
    <path d="M65.6820453,66.1291516 C65.6820453,71.264685 69.8183444,75.4279573 74.9206055,75.4279573 L74.9206055,75.4279573 C80.0228667,75.4279573 84.1591658,71.264685 84.1591658,66.1291516 L84.1591658,66.1291516 C84.1591658,60.9936182 80.0228667,56.830346 74.9206055,56.830346 L74.9206055,56.830346 C69.8183444,56.830346 65.6820453,60.9936182 65.6820453,66.1291516" id="path-7"></path>
    <path d="M0,9.29880564 C0,14.434339 4.1362991,18.5976113 9.23856027,18.5976113 L9.23856027,18.5976113 C14.3408214,18.5976113 18.4771205,14.434339 18.4771205,9.29880564 L18.4771205,9.29880564 C18.4771205,4.16327223 14.3408214,0 9.23856027,0 L9.23856027,0 C4.1362991,0 0,4.16327223 0,9.29880564" id="path-9"></path>
  </defs>
  <g id="r4" stroke="none" stroke-width="1" fill="none" fill-rule="evenodd">
    <g id="Geek-Support_LP_r4" transform="translate(-229.000000, -1532.000000)">
      <g id="BENEFITS" transform="translate(89.000000, 1100.000000)">
        <g id="QUICK-REMOTE-RESPONSE" transform="translate(1.000000, 432.000000)">
          <g id="ICON-RESPONSE" transform="translate(138.999838, 0.000000)">
            <g id="Group-13" transform="translate(21.240575, 0.000000)">
              <g id="Group-3" fill="url(#linearGradient-1)">
                <rect id="Rectangle" x="0" y="0" width="76" height="131" rx="8"></rect>
              </g>
              <path d="M27.4770793,7.32357997 C28.3946345,8.76697781 29.9863192,9.64122248 31.6966715,9.64122248 L44.8047087,9.64122248 C46.5150757,9.64122248 48.1067718,8.76696291 49.024323,7.3235451 L50.5013532,5 L66,5 C68.7614237,5 71,7.23857625 71,10 L71,121 C71,123.761424 68.7614237,126 66,126 L10,126 C7.23857625,126 5,123.761424 5,121 L5,10 C5,7.23857625 7.23857625,5 10,5 L26,5 L27.4770793,7.32357997 Z" id="Combined-Shape" fill="url(#linearGradient-2)"></path>
              <line x1="32.2595864" y1="121.5" x2="46.2595864" y2="121.5" id="Line-2" stroke="#17A7A7" stroke-width="3" stroke-linecap="round"></line>
              <path d="M31.0775949,93.6665256 C31.0775949,98.802059 26.9412958,102.965331 21.8390347,102.965331 C16.7367735,102.965331 12.6004744,98.802059 12.6004744,93.6665256 C12.6004744,88.5309922 16.7367735,84.36772 21.8390347,84.36772 C26.9412958,84.36772 31.0775949,88.5309922 31.0775949,93.6665256" id="Fill-12" fill="#CDD1D1"></path>
            </g>
            <g id="Group-20" transform="translate(33.840834, 84.367991)">
              <g id="Group-16">
                <mask id="mask-4" fill="white">
                  <use xlink:href="#path-3"></use>
                </mask>
                <use id="Clip-15" fill="#FFFFFF" xlink:href="#path-3"></use>
                <path d="M13.1285229,9.36541149 C12.2120973,10.4997162 10.8099986,11.218886 9.24313701,11.218886 C7.67627547,11.218886 6.27471512,10.4997162 5.34913609,9.37462467 C3.69073968,10.5734216 2.61870485,12.5379962 2.61870485,14.7513265 L2.61870485,18.5975571 L15.8589541,18.5975571 L15.8589541,14.7513265 C15.8589541,12.5379962 14.7869193,10.5734216 13.1285229,9.36541149" id="Fill-14" fill="#17A7A7" mask="url(#mask-4)"></path>
              </g>
              <g id="Group-19" transform="translate(5.576089, 2.457209)" fill="#17A7A7">
                <path d="M0.0592284433,4.2868372 C0.065689728,4.32585771 0.0635359664,4.36704603 0.0710741319,4.4055246 C0.101765234,4.56269056 0.155070833,4.7101014 0.204607349,4.85913809 C0.229375608,4.93338546 0.244451939,5.01142649 0.27406616,5.08350605 C0.332756163,5.22820713 0.41029158,5.36152723 0.486211675,5.49647318 C0.522825622,5.56150737 0.552439843,5.63141913 0.592822873,5.69374356 C0.685434621,5.83790269 0.79473802,5.96742912 0.905656741,6.09695556 C0.936347844,6.13164046 0.960039221,6.17337073 0.991807204,6.20751368 C0.996653168,6.2129332 1.00365289,6.21672686 1.00849886,6.22214638 C1.16033905,6.383106 1.32671713,6.52780708 1.5049409,6.65950132 C1.52109411,6.67142426 1.53509356,6.6865989 1.55124677,6.69797989 C2.14945405,7.12503775 2.87581014,7.38138086 3.66516376,7.38138086 C3.92953799,7.38138086 4.1869125,7.35048962 4.43567196,7.29683641 C4.4362104,7.29629446 4.43674884,7.29629446 4.43782572,7.29575251 C4.68120078,7.2431832 4.91488391,7.16514217 5.13779823,7.06650698 C5.17225842,7.05133233 5.20241108,7.02911232 5.23633282,7.01231182 C5.42209476,6.92343175 5.60139541,6.82479656 5.76831193,6.70665111 C5.81677157,6.67250816 5.85823148,6.62969398 5.90507579,6.59338323 C6.04668562,6.48228315 6.1850648,6.36738941 6.30944453,6.23677907 C6.3196749,6.22594004 6.33259746,6.21835272 6.34282783,6.20751368 C6.40582536,6.13976973 6.45536187,6.0606448 6.512975,5.98802328 C6.58566445,5.89751737 6.66266143,5.81134706 6.72673583,5.71325382 C6.81019409,5.58643714 6.87588382,5.44932339 6.94318887,5.31220963 C6.97711062,5.24229787 7.01910897,5.17780563 7.04926163,5.10572607 C7.1262586,4.91929472 7.18333329,4.72202433 7.22963916,4.52096029 C7.23663889,4.4895271 7.25009989,4.46134561 7.25656118,4.42991242 C7.30502081,4.19036981 7.33248128,3.94378183 7.33248128,3.68960653 C7.33248128,1.65132654 5.69239184,0 3.66731752,0 C2.40090571,0 1.28525722,0.646006313 0.626744618,1.62856457 C0.230990929,2.21766597 0,2.92816452 0,3.69231628 C0,3.89609009 0.0274604601,4.09227657 0.0592284433,4.2868372" id="Fill-17"></path>
              </g>
            </g>
            <g id="Group-30" transform="translate(33.841050, 27.203152)" fill="#CDD1D1">
              <path d="M18.4771205,9.29880564 C18.4771205,14.434339 14.3408214,18.5976113 9.23856027,18.5976113 C4.1362991,18.5976113 0,14.434339 0,9.29880564 C0,4.16327223 4.1362991,0 9.23856027,0 C14.3408214,0 18.4771205,4.16327223 18.4771205,9.29880564" id="Fill-29"></path>
            </g>
            <g id="Group-37" transform="translate(33.840834, 25.143467)">
              <g id="Group-33" transform="translate(0.000000, 2.060010)">
                <mask id="mask-6" fill="white">
                  <use xlink:href="#path-5"></use>
                </mask>
                <use id="Clip-32" fill="#FFFFFF" xlink:href="#path-5"></use>
                <path d="M13.1285229,9.3653573 C12.2120973,10.499662 10.8099986,11.2188318 9.24313701,11.2188318 C7.67627547,11.2188318 6.27471512,10.499662 5.34913609,9.37457047 C3.69073968,10.5733674 2.61870485,12.537942 2.61870485,14.7512723 L2.61870485,18.5975029 L15.8589541,18.5975029 L15.8589541,14.7512723 C15.8589541,12.537942 14.7869193,10.5733674 13.1285229,9.3653573" id="Fill-31" fill="#17A7A7" mask="url(#mask-6)"></path>
              </g>
              <g id="Group-36" transform="translate(5.576089, 4.517165)" fill="#17A7A7">
                <path d="M0.0592284433,4.2868372 C0.065689728,4.32585771 0.0635359664,4.36704603 0.0710741319,4.4055246 C0.101765234,4.56269056 0.155070833,4.7101014 0.204607349,4.85913809 C0.229375608,4.93338546 0.244451939,5.01142649 0.27406616,5.08350605 C0.332756163,5.22820713 0.41029158,5.36152723 0.486211675,5.49647318 C0.522825622,5.56150737 0.552439843,5.63141913 0.592822873,5.69374356 C0.685434621,5.83790269 0.79473802,5.96742912 0.905656741,6.09695556 C0.936347844,6.13164046 0.960039221,6.17337073 0.991807204,6.20751368 C0.996653168,6.2129332 1.00365289,6.21672686 1.00849886,6.22214638 C1.16033905,6.383106 1.32671713,6.52780708 1.5049409,6.65950132 C1.52109411,6.67142426 1.53509356,6.6865989 1.55124677,6.69797989 C2.14945405,7.12503775 2.87581014,7.38138086 3.66516376,7.38138086 C3.92953799,7.38138086 4.1869125,7.35048962 4.43567196,7.29683641 C4.4362104,7.29629446 4.43674884,7.29629446 4.43782572,7.29575251 C4.68120078,7.2431832 4.91488391,7.16514217 5.13779823,7.06650698 C5.17225842,7.05133233 5.20241108,7.02911232 5.23633282,7.01231182 C5.42209476,6.92343175 5.60139541,6.82479656 5.76831193,6.70665111 C5.81677157,6.67250816 5.85823148,6.62969398 5.90507579,6.59338323 C6.04668562,6.48228315 6.1850648,6.36738941 6.30944453,6.23677907 C6.3196749,6.22594004 6.33259746,6.21835272 6.34282783,6.20751368 C6.40582536,6.13976973 6.45536187,6.0606448 6.512975,5.98802328 C6.58566445,5.89751737 6.66266143,5.81134706 6.72673583,5.71325382 C6.81019409,5.58643714 6.87588382,5.44932339 6.94318887,5.31220963 C6.97711062,5.24229787 7.01910897,5.17780563 7.04926163,5.10572607 C7.1262586,4.91929472 7.18333329,4.72202433 7.22963916,4.52096029 C7.23663889,4.4895271 7.25009989,4.46134561 7.25656118,4.42991242 C7.30502081,4.19036981 7.33248128,3.94378183 7.33248128,3.68906457 C7.33248128,1.65132654 5.69239184,0 3.66731752,0 C2.40090571,0 1.28525722,0.646006313 0.626744618,1.62856457 C0.230990929,2.21766597 0,2.92816452 0,3.69231628 C0,3.89609009 0.0274604601,4.09227657 0.0592284433,4.2868372" id="Fill-34"></path>
              </g>
              <g id="QUOTE" transform="translate(53.098605, 11.142353) scale(-1, 1) translate(-53.098605, -11.142353) translate(22.159166, 0.000000)">
                <path d="M61.8788793,5.69069043 L61.8788793,17.1930713 C61.8788793,18.2103145 61.0561423,19.0384165 60.0454897,19.0384165 L59.4365136,19.0384165 L59.4365136,22.2847066 L56.2117941,19.0384165 L1.83338954,19.0384165 C0.823275361,19.0384165 0,18.2103145 0,17.1930713 L0,1.84534521 C0,0.828644004 0.823275361,0 1.83338954,0 L60.0454897,0 C61.0561423,0 61.8788793,0.828644004 61.8788793,1.84534521" id="Fill-38" fill="#17A7A7"></path>
                <g id="LINES" transform="translate(4.000162, 4.686879)" stroke="#FFFFFF" stroke-linecap="round" stroke-width="2">
                  <line x1="0.5" y1="0.66965402" x2="53.5" y2="0.66965402" id="Line"></line>
                  <line x1="0.5" y1="4.66965402" x2="53.5" y2="4.66965402" id="Line"></line>
                  <line x1="0.5" y1="8.66965402" x2="53.5" y2="8.66965402" id="Line"></line>
                </g>
              </g>
              <g id="QUOTE" transform="translate(53.098605, 69.142353) scale(-1, 1) translate(-53.098605, -69.142353) translate(22.159166, 58.000000)">
                <path d="M61.8788793,5.69069043 L61.8788793,17.1930713 C61.8788793,18.2103145 61.0561423,19.0384165 60.0454897,19.0384165 L59.4365136,19.0384165 L59.4365136,22.2847066 L56.2117941,19.0384165 L1.83338954,19.0384165 C0.823275361,19.0384165 0,18.2103145 0,17.1930713 L0,1.84534521 C0,0.828644004 0.823275361,0 1.83338954,0 L60.0454897,0 C61.0561423,0 61.8788793,0.828644004 61.8788793,1.84534521" id="Fill-38" fill="#17A7A7"></path>
                <g id="LINES" transform="translate(4.000162, 4.686879)" stroke="#FFFFFF" stroke-linecap="round" stroke-width="2">
                  <line x1="0.5" y1="0.66965402" x2="53.5" y2="0.66965402" id="Line"></line>
                  <line x1="0.5" y1="4.66965402" x2="53.5" y2="4.66965402" id="Line"></line>
                  <line x1="0.5" y1="8.66965402" x2="53.5" y2="8.66965402" id="Line"></line>
                </g>
              </g>
            </g>
            <g id="Group-47" transform="translate(0.000000, 53.143467)">
              <g id="Group-40"></g>
              <g id="QUOTE">
                <path d="M61.8788793,5.69069043 L61.8788793,17.1930713 C61.8788793,18.2103145 61.0561423,19.0384165 60.0454897,19.0384165 L59.4365136,19.0384165 L59.4365136,22.2847066 L56.2117941,19.0384165 L1.83338954,19.0384165 C0.823275361,19.0384165 0,18.2103145 0,17.1930713 L0,1.84534521 C0,0.828644004 0.823275361,0 1.83338954,0 L60.0454897,0 C61.0561423,0 61.8788793,0.828644004 61.8788793,1.84534521" id="Fill-38" fill="#C86DD7"></path>
                <g id="LINES" transform="translate(4.000162, 4.686879)" stroke="#FFFFFF" stroke-linecap="round" stroke-width="2">
                  <line x1="0.5" y1="0.66965402" x2="53.5" y2="0.66965402" id="Line"></line>
                  <line x1="0.5" y1="4.66965402" x2="53.5" y2="4.66965402" id="Line"></line>
                  <line x1="0.5" y1="8.66965402" x2="53.5" y2="8.66965402" id="Line"></line>
                </g>
              </g>
              <path d="M65.6819914,12.9856842 C65.6819914,18.1212176 69.8182905,22.2844898 74.9205517,22.2844898 C80.0228129,22.2844898 84.159112,18.1212176 84.159112,12.9856842 C84.159112,7.85015079 80.0228129,3.68687857 74.9205517,3.68687857 C69.8182905,3.68687857 65.6819914,7.85015079 65.6819914,12.9856842" id="Fill-46" fill="#058789"></path>
            </g>
            <mask id="mask-8" fill="white">
              <use xlink:href="#path-7"></use>
            </mask>
            <use id="Clip-52" fill="#FFFFFF" xlink:href="#path-7"></use>
            <g id="Group-54" mask="url(#mask-8)">
              <g transform="translate(65.682045, 56.830346)">
                <g id="Group-50">
                  <mask id="mask-10" fill="white">
                    <use xlink:href="#path-9"></use>
                  </mask>
                  <g id="Clip-49"></g>
                  <path d="M5.34881302,9.36568247 C6.26523857,10.4999872 7.66733736,11.219157 9.23366046,11.219157 C10.800522,11.219157 12.2026208,10.4999872 13.1281998,9.37489564 C14.7865962,10.5736926 15.8586311,12.5382672 15.8586311,14.7515975 L15.8586311,18.5978281 L2.61838179,18.5978281 L2.61838179,14.7515975 C2.61838179,12.5382672 3.69041661,10.5736926 5.34881302,9.36568247" id="Fill-48" fill="#C86DD7" mask="url(#mask-10)"></path>
                </g>
                <g id="Group-53" transform="translate(5.568712, 2.457480)">
                  <path d="M7.27325283,4.2868372 C7.26679155,4.32585771 7.26894531,4.36704603 7.26140714,4.4055246 C7.23071604,4.56269056 7.17741044,4.7101014 7.12787393,4.85913809 C7.10310567,4.93338546 7.08802934,5.01142649 7.05841511,5.08350605 C6.99972511,5.22820713 6.9221897,5.36152723 6.8462696,5.49647318 C6.80965565,5.56150737 6.78004143,5.63141913 6.7396584,5.69374356 C6.64704665,5.83790269 6.53774325,5.96742912 6.42682453,6.09695556 C6.39613343,6.13164046 6.37244205,6.17337073 6.34067407,6.20751368 C6.33582811,6.2129332 6.32882838,6.21672686 6.32398242,6.22214638 C6.17214223,6.383106 6.00576415,6.52780708 5.82754038,6.65950132 C5.81138716,6.67142426 5.79738771,6.6865989 5.7812345,6.69797989 C5.18302723,7.12503775 4.45667113,7.38138086 3.66731752,7.38138086 C3.40294329,7.38138086 3.14556878,7.35048962 2.89680932,7.29683641 C2.89627088,7.29629446 2.89573243,7.29629446 2.89465555,7.29575251 C2.6512805,7.2431832 2.41759737,7.16514217 2.19468304,7.06650698 C2.16022286,7.05133233 2.1300702,7.02911232 2.09614845,7.01231182 C1.91038652,6.92343175 1.73108586,6.82479656 1.56416934,6.70665111 C1.51570971,6.67250816 1.47478824,6.62969398 1.42740548,6.59338323 C1.28579566,6.48228315 1.14741648,6.36738941 1.02303675,6.23677907 C1.01280638,6.22594004 0.99988381,6.21835272 0.989653443,6.20751368 C0.926655917,6.13976973 0.877119401,6.0606448 0.819506278,5.98802328 C0.746816825,5.89751737 0.669819849,5.81134706 0.605745442,5.71325382 C0.522287181,5.58643714 0.456597453,5.44932339 0.389292404,5.31220963 C0.35537066,5.24229787 0.313372309,5.17780563 0.283219647,5.10626802 C0.206222671,4.91929472 0.149147989,4.72202433 0.102842115,4.52096029 C0.09584239,4.4895271 0.0823813802,4.46134561 0.0759200954,4.42991242 C0.0274604601,4.19036981 0,3.94378183 0,3.68960653 C0,1.65132654 1.64008944,0 3.66516376,0 C4.93157556,0 6.04722406,0.646006313 6.70573666,1.62856457 C7.10149035,2.21766597 7.33248128,2.92816452 7.33248128,3.69231628 C7.33248128,3.89609009 7.30502081,4.09227657 7.27325283,4.2868372" id="Fill-51" fill="#C86DD7"></path>
                </g>
              </g>
            </g>
          </g>
        </g>
      </g>
    </g>
  </g>
</svg>
