<?xml version="1.0" encoding="UTF-8"?>
<svg xmlns="http://www.w3.org/2000/svg" xmlns:xlink="http://www.w3.org/1999/xlink" width="42px" height="65px" viewBox="0 0 42 65" version="1.1">
  <title>22DA91D7-102B-4E63-A8A2-935F07C08A75</title>
  <g id="v2" stroke="none" stroke-width="1" fill="none" fill-rule="evenodd">
    <g id="Geek-Support_LP-Biz_Rev-1" transform="translate(-1051.000000, -969.000000)">
      <g id="Group-34" transform="translate(198.000000, 941.000000)">
        <g id="MOBILE" transform="translate(819.000000, 30.000000)">
          <g id="ICON-MOBILE" transform="translate(35.647872, 0.000000)">
            <rect id="Rectangle" stroke="#491D72" stroke-width="3" x="2.17665039" y="0" width="34.8214286" height="61" rx="2.84"></rect>
            <line x1="38.6517857" y1="12.5175237" x2="38.6517857" y2="17.575063" id="Path-28" stroke="#491D72" stroke-width="3" stroke-linecap="round"></line>
            <line x1="0.348214286" y1="12.5175237" x2="0.348214286" y2="14.620972" id="Path-28" stroke="#491D72" stroke-width="3" stroke-linecap="round"></line>
            <line x1="0.348214286" y1="19.529018" x2="0.348214286" y2="21.6324663" id="Path-28" stroke="#491D72" stroke-width="3" stroke-linecap="round"></line>
            <g id="IMG" transform="translate(7.000000, 9.000000)">
              <rect id="Rectangle" fill="#17A7A7" x="0" y="0" width="25" height="22.5474326" rx="2.73"></rect>
              <line x1="3.44232442" y1="27.7831946" x2="22.8867689" y2="27.7831946" id="Path-38" stroke="#17A7A7" stroke-width="3" fill="#D8D8D8" stroke-linecap="round"></line>
              <line x1="3.44232442" y1="33.7154455" x2="22.8867689" y2="33.7154455" id="Path-38" stroke="#17A7A7" stroke-width="3" fill="#D8D8D8" stroke-linecap="round"></line>
              <line x1="3.44232442" y1="39.7154455" x2="22.8867689" y2="39.7154455" id="Path-38" stroke="#17A7A7" stroke-width="3" fill="#D8D8D8" stroke-linecap="round"></line>
              <polygon id="Path-39" fill="#FFFFFF" points="2.0230464 19.4342644 6.96320335 13.2803492 9.76147832 16.3573068 15.4552776 9.43426441 22.8563797 19.4342644"></polygon>
              <ellipse id="Oval" fill="#FFFFFF" cx="8.49723948" cy="7.28094178" rx="2.44565217" ry="2.46612544"></ellipse>
            </g>
          </g>
        </g>
      </g>
    </g>
  </g>
</svg>
