<?xml version="1.0" encoding="UTF-8"?>
<svg xmlns="http://www.w3.org/2000/svg" xmlns:xlink="http://www.w3.org/1999/xlink" width="127px" height="93px" viewBox="0 0 127 93" version="1.1">
  <title>AE352931-48F1-47F8-B7AE-904E32308AF1</title>
  <defs>
    <polygon id="path-1" points="0 0 50.3344477 0 50.3344477 26.3151224 0 26.3151224"></polygon>
    <linearGradient x1="0.00683854202%" y1="50.0012062%" x2="100%" y2="50.0012062%" id="linearGradient-3">
      <stop stop-color="#7ED4BB" offset="0%"></stop>
      <stop stop-color="#A2E9C8" offset="42%"></stop>
      <stop stop-color="#BAF7D0" offset="78%"></stop>
      <stop stop-color="#C3FCD3" offset="100%"></stop>
    </linearGradient>
    <linearGradient x1="0.00683854202%" y1="50.0012062%" x2="100%" y2="50.0012062%" id="linearGradient-4">
      <stop stop-color="#7ED4BB" offset="0%"></stop>
      <stop stop-color="#A2E9C8" offset="42%"></stop>
      <stop stop-color="#BAF7D0" offset="78%"></stop>
      <stop stop-color="#C3FCD3" offset="100%"></stop>
    </linearGradient>
    <linearGradient x1="0%" y1="50%" x2="91.8924979%" y2="50%" id="linearGradient-5">
      <stop stop-color="#06475C" offset="0%"></stop>
      <stop stop-color="#185D6B" offset="0%"></stop>
      <stop stop-color="#17A7A7" offset="0%"></stop>
      <stop stop-color="#70CAB5" offset="100%"></stop>
    </linearGradient>
    <linearGradient x1="0%" y1="50%" x2="91.8924979%" y2="50%" id="linearGradient-6">
      <stop stop-color="#06475C" offset="0%"></stop>
      <stop stop-color="#185D6B" offset="0%"></stop>
      <stop stop-color="#17A7A7" offset="0%"></stop>
      <stop stop-color="#70CAB5" offset="100%"></stop>
    </linearGradient>
    <polygon id="path-7" points="0 0 75.1592085 0 75.1592085 39.293678 0 39.293678"></polygon>
    <linearGradient x1="0%" y1="50%" x2="100%" y2="50%" id="linearGradient-9">
      <stop stop-color="#06475C" offset="0%"></stop>
      <stop stop-color="#185D6B" offset="15%"></stop>
      <stop stop-color="#17A7A7" offset="74.1581417%"></stop>
      <stop stop-color="#70CAB5" offset="100%"></stop>
    </linearGradient>
    <linearGradient x1="0%" y1="50%" x2="100%" y2="50%" id="linearGradient-10">
      <stop stop-color="#06475C" offset="0%"></stop>
      <stop stop-color="#185D6B" offset="15%"></stop>
      <stop stop-color="#17A7A7" offset="74.1581417%"></stop>
      <stop stop-color="#70CAB5" offset="100%"></stop>
    </linearGradient>
  </defs>
  <g id="r4" stroke="none" stroke-width="1" fill="none" fill-rule="evenodd">
    <g id="Geek-Support_LP_r4" transform="translate(-226.000000, -1261.000000)">
      <g id="BENEFITS" transform="translate(89.000000, 1100.000000)">
        <g id="DEDICATED-TEAM" transform="translate(0.000000, 146.000000)">
          <g id="ICON-TEAM" transform="translate(137.000000, 15.000000)">
            <g id="Group-3" transform="translate(76.665552, 66.684878)">
              <mask id="mask-2" fill="white">
                <use xlink:href="#path-1"></use>
              </mask>
              <g id="Clip-2"></g>
              <path d="M16.9976092,0 L21.6352593,12.4391222 L24.4467912,6.40317193 L21.2777982,1.77622729 L28.7272198,1.77622729 L25.8874169,6.40317193 L28.6546255,12.4391222 L32.9664398,0 C34.8356832,0.289304283 36.5645298,0.709192294 38.1560941,1.25725918 C45.4627229,3.77297996 50.3344477,10.7177257 50.3344477,18.4712247 L50.3344477,25.6129282 C50.3344477,26.0813943 50.1008521,26.3151464 49.6346194,26.3151464 L0.699588687,26.3151464 C0.313137813,26.3151464 0,26.0005911 0,25.6129282 L0,18.1932233 C0,8.68970985 7.26805562,0.720735607 16.7103466,0.0194793407 C16.8057015,0.0125052558 16.9015356,0.0060121422 16.9976092,0" id="Fill-1" fill="url(#linearGradient-3)" mask="url(#mask-2)"></path>
              <polygon id="Path-44" fill="#C86DD7" mask="url(#mask-2)" points="21.3344477 1.81512236 28.7788577 1.81512236 25.9410442 6.43903352 28.7788577 11.9898268 25.0566527 21.8151224 21.6915395 12.4710897 24.5014527 6.43903352"></polygon>
            </g>
            <path d="M114.31121,45.1067702 C114.616921,33.9785355 108.392738,30.7175496 101.532217,30.7175496 C93.9646795,30.7175496 88.4475123,33.9785355 88.7532229,45.1067702 C87.1067937,46.2086756 86.2886103,47.7372027 86.2837995,49.6923513 C86.2783082,51.8430148 87.4630568,53.9886281 89.8232103,54.319296 C93.2473615,62.1560031 97.1502039,66.080489 101.532217,66.0925133 C105.914229,66.080489 109.817072,62.1560031 113.241223,54.319296 C115.601376,53.9886281 116.785885,51.8430148 116.780632,49.6923513 C116.775583,47.7372027 115.957639,46.2086756 114.31121,45.1067702" id="Fill-4" fill="url(#linearGradient-4)"></path>
            <g id="Group-8" transform="translate(39.328648, 60.644695)">
              <path d="M20.8990141,0 L26.6009015,15.2944088 L30.0581154,7.87302045 L26.1617419,2.18409102 L35.3208432,2.18409102 L31.8293686,7.87302045 L35.2314779,15.2944088 L40.5332581,0 C42.831359,0.355678333 44.9571982,0.872001105 46.9141298,1.545842 C55.8976153,4.63896892 61.8877236,13.1778942 61.8877236,22.7109874 L61.8877236,31.4918413 C61.8877236,32.068045 61.600461,32.3554254 61.0273733,32.3554254 L0.860110749,32.3554254 C0.385013363,32.3554254 0,31.9687244 0,31.4918413 L0,22.3692572 C0,10.6842981 8.93628714,0.88618976 20.5458656,0.0240485688 C20.6632623,0.015391084 20.7808986,0.00721457064 20.8990141,0" id="Fill-6" fill="url(#linearGradient-5)"></path>
              <polygon id="Path-44" fill="#C86DD7" points="24.443364 1.71394383 35.5665846 1.71394383 31.3264063 8.62285716 35.5665846 16.9166908 30.0049743 31.5973611 24.9769202 17.6357798 29.1754107 8.62285716"></polygon>
            </g>
            <path d="M85.6150885,34.1137125 C85.9909976,20.4312793 78.3381682,16.4216614 69.9028537,16.4216614 C60.5983241,16.4216614 53.8147097,20.4312793 54.1906189,34.1137125 C52.1663638,35.4683684 51.1605853,37.3480045 51.1543346,39.7518994 C51.1478872,42.3960396 52.6043255,45.0344081 55.506181,45.4408289 C59.7164112,55.0763689 64.5150625,59.9014738 69.9028537,59.9163839 C75.2906449,59.9014738 80.0892962,55.0763689 84.2995264,45.4408289 C87.2013819,45.0344081 88.6578201,42.3960396 88.6513728,39.7518994 C88.6451221,37.3480045 87.6393436,35.4683684 85.6150885,34.1137125" id="Fill-9" fill="url(#linearGradient-6)"></path>
            <g id="Group-13" transform="translate(0.000000, 53.706322)">
              <mask id="mask-8" fill="white">
                <use xlink:href="#path-7"></use>
              </mask>
              <g id="Clip-12"></g>
              <path d="M32.3055681,18.5741526 L36.5040585,9.56122998 L31.7720119,2.65231665 L42.8952324,2.65231665 L38.6550541,9.56122998 L42.7869399,18.5741526 L49.2253121,0 C52.0164793,0.431912296 54.5980095,1.05909897 56.9746943,1.87747177 C67.8846841,5.63385821 75.1592085,16.0038416 75.1592085,27.5810631 L75.1592085,38.2449199 C75.1592085,38.9447333 74.8103725,39.293678 74.1143776,39.293678 L1.04473508,39.293678 C0.467813997,39.293678 -9.58340678e-05,38.82425 -9.58340678e-05,38.2449199 L-9.58340678e-05,27.1662253 C-9.58340678e-05,12.9754053 10.8528726,1.07617345 24.9519805,0.0290987682 C25.0942941,0.018517398 25.2373265,0.00889797046 25.380838,0 L32.3055681,18.5741526 Z" id="Fill-11" fill="url(#linearGradient-9)" mask="url(#mask-8)"></path>
            </g>
            <path d="M56.2124062,21.4859533 C56.668816,4.86935421 47.3748282,0 37.1308852,0 C25.8308508,0 17.5927148,4.86935421 18.0491246,21.4859533 C15.5907412,23.1311159 14.369336,25.4138061 14.3618825,28.3330618 C14.3540026,31.5445077 16.1228598,34.7484985 19.6469181,35.2419751 C24.7599051,46.9440087 30.5875747,52.803683 37.1308852,52.8219599 C43.6739561,52.803683 49.5016257,46.9440087 54.6146127,35.2419751 C58.138671,34.7484985 59.9077678,31.5445077 59.8996499,28.3330618 C59.8924344,25.4138061 58.6707896,23.1311159 56.2124062,21.4859533" id="Fill-14" fill="url(#linearGradient-10)"></path>
            <polygon id="Path-44" fill="#C86DD7" points="31.7720119 56.3586386 42.8952324 56.3586386 38.6550541 63.267552 42.8952324 71.5613856 37.5796042 91.3385545 32.3055681 72.2804746 36.5040585 63.267552"></polygon>
          </g>
        </g>
      </g>
    </g>
  </g>
</svg>
