<?xml version="1.0" encoding="UTF-8"?>
<svg xmlns="http://www.w3.org/2000/svg" xmlns:xlink="http://www.w3.org/1999/xlink" width="120px" height="103px" viewBox="0 0 120 103" version="1.1">
  <title>AB3695A2-0487-4EF2-A77A-E33DA3852770</title>
  <defs>
    <linearGradient x1="0%" y1="50%" x2="91.8924979%" y2="50%" id="linearGradient-1">
      <stop stop-color="#06475C" offset="0%"></stop>
      <stop stop-color="#185D6B" offset="0%"></stop>
      <stop stop-color="#17A7A7" offset="0%"></stop>
      <stop stop-color="#70CAB5" offset="100%"></stop>
    </linearGradient>
    <polygon id="path-2" points="0 0 120 0 120 95.3492711 0 95.3492711"></polygon>
    <linearGradient x1="0%" y1="50%" x2="100%" y2="50%" id="linearGradient-4">
      <stop stop-color="#06475C" offset="0%"></stop>
      <stop stop-color="#185D6B" offset="15%"></stop>
      <stop stop-color="#17A7A7" offset="74.1581417%"></stop>
      <stop stop-color="#70CAB5" offset="100%"></stop>
    </linearGradient>
    <linearGradient x1="-92.2317907%" y1="50%" x2="100%" y2="50%" id="linearGradient-5">
      <stop stop-color="#06475C" offset="0%"></stop>
      <stop stop-color="#185D6B" offset="15%"></stop>
      <stop stop-color="#17A7A7" offset="74.1581417%"></stop>
      <stop stop-color="#70CAB5" offset="100%"></stop>
    </linearGradient>
  </defs>
  <g id="r4" stroke="none" stroke-width="1" fill="none" fill-rule="evenodd">
    <g id="Geek-Support_LP_r4" transform="translate(-1103.000000, -1553.000000)">
      <g id="BENEFITS" transform="translate(89.000000, 1100.000000)">
        <g id="SAFE-&amp;-SECURE" transform="translate(865.000000, 453.000000)">
          <g id="ICON-SAFE" transform="translate(149.000000, 0.000000)">
            <path d="M23.1361827,103 L14.8752485,103 C14.0477508,103 13.3707073,102.325281 13.3707073,101.500625 L13.3707073,94.8488963 C13.3707073,94.0237401 14.0477508,93.349521 14.8752485,93.349521 L23.1361827,93.349521 C23.9636804,93.349521 24.6407239,94.0237401 24.6407239,94.8488963 L24.6407239,101.500625 C24.6407239,102.325281 23.9636804,103 23.1361827,103" id="Fill-16" fill="url(#linearGradient-1)"></path>
            <path d="M104.878057,103 L96.6171227,103 C95.789625,103 95.1125815,102.325281 95.1125815,101.500625 L95.1125815,94.8488963 C95.1125815,94.0237401 95.789625,93.349521 96.6171227,93.349521 L104.878057,93.349521 C105.705555,93.349521 106.382598,94.0237401 106.382598,94.8488963 L106.382598,101.500625 C106.382598,102.325281 105.705555,103 104.878057,103" id="Fill-18" fill="url(#linearGradient-1)"></path>
            <g id="Group-3">
              <mask id="mask-3" fill="white">
                <use xlink:href="#path-2"></use>
              </mask>
              <g id="Clip-2"></g>
              <path d="M114.028977,95.3492711 L5.97132344,95.3492711 C2.68690999,95.3492711 -0.000200605494,92.6713869 -0.000200605494,89.3987505 L-0.000200605494,5.95052062 C-0.000200605494,2.67788421 2.68690999,0 5.97132344,0 L114.028977,0 C117.313391,0 120,2.67788421 120,5.95052062 L120,89.3987505 C120,92.6713869 117.313391,95.3492711 114.028977,95.3492711" id="Fill-1" fill="url(#linearGradient-4)" mask="url(#mask-3)"></path>
            </g>
            <path d="M101.152601,80.9830904 L19.3018659,80.9830904 C16.3858396,80.9830904 14,78.7340275 14,75.9851728 L14,18.9979175 C14,16.2490629 16.3858396,14 19.3018659,14 L101.152601,14 C104.068627,14 106.454467,16.2490629 106.454467,18.9979175 L106.454467,75.9851728 C106.454467,78.7340275 104.068627,80.9830904 101.152601,80.9830904" id="Fill-4" stroke="#17A7A7" fill="url(#linearGradient-5)"></path>
            <path d="M69.6532367,46.9661308 C69.6532367,52.1889546 65.4049138,56.4226905 60.1640953,56.4226905 C54.9237783,56.4226905 50.6754554,52.1889546 50.6754554,46.9661308 C50.6754554,41.743307 54.9237783,37.509571 60.1640953,37.509571 C65.4049138,37.509571 69.6532367,41.743307 69.6532367,46.9661308" id="Fill-6" fill="#B3F3CD"></path>
            <path d="M28.7353328,56.6418992 L21.513535,56.6418992 C20.1343722,56.6418992 19.0059663,55.5173678 19.0059663,54.1429404 L19.0059663,39.758434 C19.0059663,38.3840067 20.1343722,37.2594752 21.513535,37.2594752 L28.7353328,37.2594752 C30.1144956,37.2594752 31.2429015,38.3840067 31.2429015,39.758434 L31.2429015,54.1429404 C31.2429015,55.5173678 30.1144956,56.6418992 28.7353328,56.6418992" id="Fill-8" fill="#17A7A7"></path>
            <path d="M38.313192,49.5706955 L24.1725107,49.5706955 C23.1223409,49.5706955 22.2627464,48.7140525 22.2627464,47.6674885 L22.2627464,46.2340858 C22.2627464,45.1870221 23.1223409,44.3308788 24.1725107,44.3308788 L38.313192,44.3308788 C39.3638633,44.3308788 40.2229563,45.1870221 40.2229563,46.2340858 L40.2229563,47.6674885 C40.2229563,48.7140525 39.3638633,49.5706955 38.313192,49.5706955" id="Fill-10" fill="#B3F3CD"></path>
            <path d="M107.856898,45.0328363 L99.5979699,45.0328363 C98.5036669,45.0328363 97.6089664,44.140708 97.6089664,43.0506622 L97.6089664,34.8200916 C97.6089664,33.729546 98.5036669,32.8379175 99.5979699,32.8379175 L107.856898,32.8379175 C108.9507,32.8379175 109.845902,33.729546 109.845902,34.8200916 L109.845902,43.0506622 C109.845902,44.140708 108.9507,45.0328363 107.856898,45.0328363" id="Fill-12" fill="#94E0C2"></path>
            <path d="M107.856898,62.5114036 L99.5979699,62.5114036 C98.5036669,62.5114036 97.6089664,61.6192753 97.6089664,60.5292295 L97.6089664,52.2986589 C97.6089664,51.2081133 98.5036669,50.3164848 99.5979699,50.3164848 L107.856898,50.3164848 C108.9507,50.3164848 109.845902,51.2081133 109.845902,52.2986589 L109.845902,60.5292295 C109.845902,61.6192753 108.9507,62.5114036 107.856898,62.5114036" id="Fill-14" fill="#94E0C2"></path>
            <path d="M66.1114965,46.9661308 C66.1114965,50.239267 63.4489601,52.8931612 60.1640451,52.8931612 C56.8796317,52.8931612 54.2170953,50.239267 54.2170953,46.9661308 C54.2170953,43.6929946 56.8796317,41.0391004 60.1640451,41.0391004 C63.4489601,41.0391004 66.1114965,43.6929946 66.1114965,46.9661308" id="Fill-20" fill="#C86DD7"></path>
            <path d="M62.5256733,46.9506872 C62.5256733,48.2506456 61.4684824,49.3042066 60.1640451,49.3042066 C58.8601094,49.3042066 57.8029185,48.2506456 57.8029185,46.9506872 C57.8029185,45.6507289 58.8601094,44.5971678 60.1640451,44.5971678 C61.4684824,44.5971678 62.5256733,45.6507289 62.5256733,46.9506872" id="Fill-22" fill="#FFFFFE"></path>
          </g>
        </g>
      </g>
    </g>
  </g>
</svg>
