<?xml version="1.0" encoding="UTF-8"?>
<svg width="40px" height="30px" viewBox="0 0 40 30" version="1.1" xmlns="http://www.w3.org/2000/svg" xmlns:xlink="http://www.w3.org/1999/xlink">
    <title>A4AF1ECB-5912-4EE6-8CEB-C5D1B1484068</title>
    <defs>
        <path d="M390,70.6086957 L390,70.6086957 C390,69.1678261 388.832174,68 387.391304,68 L352.608696,68 C351.167826,68 350,69.1678261 350,70.6086957 C350,72.0495652 351.167826,73.2173913 352.608696,73.2173913 L387.391304,73.2173913 C388.832174,73.2173913 390,72.0495652 390,70.6086957 M390,94.9565217 L390,94.9565217 C390,93.5156522 388.832174,92.3478261 387.391304,92.3478261 L352.608696,92.3478261 C351.167826,92.3478261 350,93.5156522 350,94.9565217 C350,96.3973913 351.167826,97.5652174 352.608696,97.5652174 L387.391304,97.5652174 C388.832174,97.5652174 390,96.3973913 390,94.9565217 M387.391304,85.3913043 L352.608696,85.3913043 C351.167826,85.3913043 350,84.2234783 350,82.7826087 C350,81.3417391 351.167826,80.173913 352.608696,80.173913 L387.391304,80.173913 C388.832174,80.173913 390,81.3417391 390,82.7826087 C390,84.2234783 388.832174,85.3913043 387.391304,85.3913043" id="path-1"></path>
    </defs>
    <g id="r4" stroke="none" stroke-width="1" fill="none" fill-rule="evenodd">
        <g id="NAV-M" transform="translate(-350.000000, -68.000000)">
            <mask id="mask-2" fill="white">
                <use xlink:href="#path-1"></use>
            </mask>
            <use id="Fill-1" fill="#17A7A7" xlink:href="#path-1"></use>
        </g>
    </g>
</svg>